<?xml version="1.0" standalone="no"?>
<!DOCTYPE svg PUBLIC "-//W3C//DTD SVG 20010904//EN"
 "http://www.w3.org/TR/2001/REC-SVG-20010904/DTD/svg10.dtd">
<svg version="1.0" xmlns="http://www.w3.org/2000/svg"
 width="500.000000pt" height="500.000000pt" viewBox="0 0 500.000000 500.000000"
 preserveAspectRatio="xMidYMid meet">
<metadata>
Created by potrace 1.14, written by Peter Selinger 2001-2017
</metadata>
<g transform="translate(0.000000,500.000000) scale(0.100000,-0.100000)"
fill="#000000" stroke="none">
<path d="M0 2500 l0 -2500 2500 0 2500 0 0 2500 0 2500 -2500 0 -2500 0 0
-2500z m2767 1271 c61 -11 159 -36 218 -55 128 -43 266 -112 259 -130 -3 -7 5
-21 17 -32 l21 -19 -28 -5 c-32 -6 -43 -26 -17 -33 11 -3 8 -5 -10 -6 -24 -1
-27 -4 -22 -21 8 -24 -3 -26 -20 -4 -13 19 -120 23 -137 6 -7 -7 -19 -7 -33
-2 -12 5 -26 5 -31 0 -5 -4 -18 -10 -29 -12 -14 -3 -5 -9 30 -20 28 -8 50 -21
50 -27 0 -7 9 -20 20 -28 l20 -16 -20 7 c-23 9 -24 9 -47 7 -11 -1 -18 -9 -18
-22 0 -14 4 -18 13 -12 14 9 64 15 130 16 34 0 47 4 47 15 0 11 3 12 14 3 11
-9 15 -9 18 1 4 10 11 11 36 1 30 -10 48 -1 20 10 -10 4 -10 8 0 15 11 7 6 12
-17 20 -33 12 -34 13 -25 36 9 23 34 20 77 -9 22 -15 42 -23 50 -18 23 14 80
10 118 -9 46 -22 50 -38 11 -38 -36 0 -40 -5 -35 -34 4 -17 13 -25 34 -28 17
-3 32 -1 34 2 3 4 16 8 30 8 48 0 170 -161 246 -324 22 -45 39 -86 39 -91 0
-19 -62 -35 -125 -31 -52 2 -67 0 -77 -15 -8 -11 -28 -18 -51 -19 -21 -1 -40
-5 -43 -10 -8 -13 16 -38 37 -38 11 0 19 -6 19 -14 0 -17 -40 -109 -50 -116
-4 -3 -10 -14 -12 -25 -3 -12 -23 36 -49 117 l-44 138 -65 0 c-36 1 -84 3
-106 5 -40 3 -42 2 -48 -27 -3 -17 -6 -46 -6 -65 l0 -34 -52 29 c-90 48 -112
31 -47 -39 31 -32 43 -40 47 -29 6 17 22 30 39 30 7 0 11 -18 9 -52 -2 -36 -6
-52 -15 -50 -9 2 -9 -3 -1 -19 13 -24 7 -35 -12 -23 -7 4 -21 9 -31 9 -10 1
-23 8 -30 15 -10 10 -7 10 13 0 22 -12 23 -11 13 2 -7 8 -10 17 -8 20 3 3 -8
8 -24 11 -23 5 -36 17 -52 49 -12 24 -25 45 -29 48 -15 10 -48 82 -44 94 3 7
-12 32 -33 55 -33 37 -45 43 -94 50 -35 4 -68 17 -90 33 -48 36 -96 64 -81 48
20 -23 14 -32 -9 -12 -23 22 -61 32 -123 32 -22 0 -68 7 -101 16 -125 32 -141
36 -160 38 -11 2 -33 9 -50 16 -22 8 -44 9 -80 2 -41 -8 -46 -11 -28 -17 13
-4 21 -11 18 -15 -6 -10 -46 -1 -65 16 -8 7 -28 15 -45 19 l-30 6 24 -20 c30
-27 23 -26 -30 3 -24 13 -61 29 -82 36 -33 10 -41 10 -56 -4 -10 -9 -22 -16
-27 -16 -6 0 -19 -7 -30 -16 -10 -8 -14 -13 -7 -9 13 6 94 -95 86 -109 -3 -4
-10 -2 -15 5 -6 10 -11 10 -14 3 -3 -6 -16 -9 -30 -6 -19 3 -23 9 -18 25 5 17
3 19 -12 12 -11 -5 -36 -7 -56 -6 -23 1 -38 -3 -38 -10 0 -18 -38 -61 -42 -48
-3 9 -12 7 -30 -5 -15 -10 -25 -23 -22 -31 6 -16 52 -26 60 -13 3 5 23 7 43 3
21 -3 55 -8 76 -10 38 -3 65 -25 65 -52 0 -7 -5 -13 -11 -13 -8 0 -8 -4 0 -14
17 -20 4 -41 -25 -44 -35 -3 -44 -10 -37 -29 4 -11 3 -14 -6 -9 -14 9 -57 -36
-90 -95 l-23 -42 47 6 c27 4 53 11 59 16 21 17 93 11 117 -10 12 -10 25 -19
29 -19 3 0 14 -16 23 -36 13 -26 15 -40 7 -55 -15 -27 -22 -24 -45 17 -14 26
-31 40 -60 50 -21 7 -42 11 -45 8 -3 -3 16 -25 42 -47 34 -30 45 -46 39 -56
-7 -10 -12 -9 -23 8 -9 12 -19 21 -24 19 -19 -5 -63 33 -57 49 5 12 2 15 -10
10 -9 -3 -37 0 -62 7 -44 14 -63 8 -49 -16 4 -6 3 -8 -4 -4 -10 6 -72 -72 -72
-91 0 -4 10 -14 21 -21 21 -13 21 -12 17 27 -3 36 -1 41 17 41 14 0 26 -13 40
-41 30 -64 28 -73 -20 -118 -43 -40 -84 -54 -86 -28 0 9 -2 9 -6 -1 -2 -6 -9
-10 -14 -6 -5 3 -6 11 -2 17 11 18 12 36 3 42 -4 3 -10 -2 -14 -10 -3 -8 0
-15 6 -15 6 0 8 -3 5 -6 -4 -4 -12 -2 -20 4 -10 8 -19 1 -41 -34 -17 -27 -35
-44 -47 -44 -17 0 -18 3 -8 21 12 24 187 309 286 467 36 57 63 105 61 108 -3
2 -63 0 -134 -6 -71 -5 -203 -11 -293 -12 -200 -4 -199 -4 -151 101 19 40 42
77 52 82 20 11 24 -1 7 -18 -7 -7 -3 -12 15 -15 14 -3 26 -1 26 4 0 5 5 6 10
3 6 -3 10 -1 10 4 0 6 -3 11 -7 11 -5 1 -19 9 -31 20 l-24 20 23 37 c12 21 34
52 48 70 14 18 37 46 50 63 16 21 26 28 31 20 5 -8 10 -9 14 -2 3 6 0 12 -6
15 -17 5 6 33 44 53 20 10 33 12 47 5 23 -13 36 -58 21 -76 -12 -15 3 -30 20
-20 6 3 10 1 10 -5 0 -6 4 -8 10 -5 6 4 5 13 -3 26 -11 18 -8 23 23 49 19 15
38 26 42 24 13 -8 59 8 55 20 -3 6 -10 10 -16 8 -10 -2 -15 10 -13 29 1 4 -14
3 -33 -1 -21 -5 -35 -4 -35 1 0 6 -8 6 -19 0 -10 -6 -22 -7 -26 -3 -5 4 -5 -1
-2 -10 8 -22 -21 -25 -29 -3 -9 23 119 125 250 199 77 44 80 45 114 31 41 -18
52 -13 52 22 0 20 3 24 18 17 39 -17 166 2 221 34 l44 25 18 -22 c21 -25 35
-27 43 -5 4 10 14 14 26 11 11 -3 18 -1 15 3 -3 5 1 10 7 13 10 3 8 10 -5 25
-14 15 -15 21 -5 25 7 3 87 6 178 6 120 1 195 -4 277 -18z m433 -340 c0 -5 3
-16 6 -25 5 -13 1 -15 -27 -9 -19 3 -35 10 -37 15 -2 4 -13 9 -25 10 -12 0 -2
4 23 8 25 4 48 8 53 8 4 1 7 -2 7 -7z m-350 -486 c0 -8 -4 -15 -10 -15 -5 0
-7 7 -4 15 4 8 8 15 10 15 2 0 4 -7 4 -15z m-460 -65 c0 -2 -80 -125 -177
-272 l-178 -268 -92 0 c-56 0 -93 4 -93 10 0 6 8 10 19 10 10 0 24 7 31 15 11
13 10 14 -4 9 -18 -7 -19 -4 -10 20 3 9 14 16 25 16 27 0 69 60 63 90 -3 20
-3 21 4 6 8 -17 10 -16 28 12 10 17 63 97 117 178 55 81 101 153 104 160 5 15
163 28 163 14z m80 -10 c0 -5 9 -7 20 -5 11 2 20 -1 20 -6 0 -6 17 -8 43 -4
36 6 44 4 44 -9 0 -12 -3 -13 -14 -4 -11 8 -12 7 -7 -6 3 -9 11 -16 17 -16 8
0 8 -3 0 -11 -8 -8 -17 -7 -34 5 -29 20 -40 20 -33 2 4 -11 -3 -12 -41 -5 -42
8 -49 6 -65 -14 -13 -16 -15 -24 -7 -29 8 -5 6 -8 -5 -8 -11 0 -42 -37 -82
-97 l-65 -97 27 -16 c33 -20 82 -31 82 -18 0 5 5 6 10 3 6 -4 8 -11 5 -16 -3
-5 0 -7 7 -4 35 13 48 -28 34 -108 -7 -42 -6 -51 12 -68 18 -16 36 -19 117
-19 60 0 95 4 95 11 0 5 5 7 11 3 7 -4 7 -9 2 -13 -6 -3 -12 -16 -15 -28 -7
-26 19 -33 28 -8 4 8 11 15 16 15 6 0 5 -6 -2 -15 -9 -11 -9 -15 -1 -15 7 0 9
-4 6 -10 -3 -5 -15 -10 -26 -10 -22 0 -25 -10 -7 -28 6 -6 9 -14 6 -17 -3 -4
-12 8 -19 25 -8 17 -19 28 -26 25 -7 -2 -13 0 -13 5 0 5 -6 10 -12 13 -7 2 -2
2 10 0 16 -3 23 0 20 9 -3 7 -14 14 -26 16 -23 3 -106 -31 -97 -40 3 -3 -3 -8
-14 -11 -28 -7 -16 17 17 34 l27 14 -43 3 c-26 2 -45 9 -49 18 -7 19 -23 18
-23 -1 0 -8 -4 -15 -9 -15 -14 0 -7 -42 12 -71 9 -14 28 -32 41 -39 14 -7 22
-18 20 -25 -7 -18 78 -59 88 -42 6 9 8 9 8 0 0 -17 62 -4 76 16 11 14 85 25
81 11 -1 -3 10 -18 26 -33 15 -16 27 -37 27 -47 0 -11 5 -20 10 -20 6 0 10
-10 10 -22 0 -12 3 -18 7 -15 8 9 44 -23 38 -34 -3 -4 8 -4 25 1 17 5 38 6 46
3 8 -3 14 0 14 6 0 6 -7 11 -16 11 -8 0 -12 5 -9 10 12 19 35 10 41 -15 3 -14
10 -25 14 -25 5 0 17 -3 27 -6 15 -5 15 -4 3 5 -8 6 -10 11 -5 11 6 0 3 5 -5
11 -13 9 -12 10 3 5 10 -3 26 3 37 14 20 20 27 42 13 38 -18 -4 -53 14 -53 28
0 12 -4 12 -26 -2 -24 -16 -26 -16 -42 7 -9 13 -17 29 -17 34 0 6 -28 13 -62
17 -79 9 -89 15 -68 38 9 10 14 24 10 30 -5 8 -11 5 -21 -7 -13 -17 -14 -16
-11 7 9 58 37 78 37 26 0 -20 10 -26 78 -45 42 -12 100 -21 127 -20 129 3 159
-8 147 -53 -5 -21 -4 -22 11 -9 15 12 17 12 11 -3 -5 -12 0 -16 21 -16 16 0
24 4 19 11 -5 8 -1 8 13 0 11 -6 22 -9 24 -6 2 2 4 -21 3 -52 -1 -37 3 -56 12
-60 8 -3 14 -13 14 -23 0 -21 38 -31 93 -23 35 4 50 -8 27 -22 -17 -11 -1 -25
28 -25 18 0 23 3 14 8 -10 7 -8 13 7 26 14 13 21 14 27 5 5 -8 3 -10 -5 -4
-10 6 -11 3 -2 -13 13 -24 5 -52 -15 -52 -7 0 -18 -9 -24 -20 -10 -18 -8 -20
24 -20 36 0 53 19 33 39 -9 9 -9 14 2 20 9 6 10 11 2 15 -17 11 -13 24 8 31
23 7 71 -13 71 -30 0 -24 87 -33 148 -15 l34 9 -17 -27 c-36 -56 -98 -132
-108 -132 -18 0 -92 23 -105 33 -19 14 -39 -7 -24 -25 7 -9 7 -19 2 -28 -8
-13 -10 -13 -10 -1 0 11 -4 9 -15 -5 -14 -19 -14 -18 -9 2 4 14 0 23 -10 27
-10 4 -16 1 -16 -8 0 -8 -4 -15 -10 -15 -5 0 -10 7 -10 15 0 12 -11 14 -61 10
-34 -3 -67 -9 -73 -12 -5 -4 -25 -6 -43 -5 -23 2 -33 -2 -33 -12 0 -8 -9 -18
-20 -21 -11 -4 -18 -11 -15 -16 3 -5 -1 -6 -10 -3 -8 4 -22 1 -30 -6 -7 -6
-24 -10 -36 -8 -15 2 -27 -4 -34 -17 -5 -11 -19 -33 -29 -49 -18 -25 -21 -26
-32 -12 -6 9 -17 15 -24 14 -7 -2 -15 3 -18 11 -3 9 0 11 8 6 9 -6 9 -3 1 14
-7 13 -21 21 -37 21 -20 0 -25 -4 -22 -22 4 -29 -21 -34 -47 -11 -11 10 -33
29 -50 41 -16 13 -32 33 -35 44 -4 14 -14 22 -29 23 -13 1 -33 14 -43 28 -11
15 -26 27 -34 27 -8 0 -14 5 -14 10 0 6 -7 10 -16 10 -8 0 -12 5 -9 11 4 6 1
9 -6 8 -17 -3 -69 21 -69 32 0 5 -7 6 -15 3 -8 -4 -15 -2 -15 3 0 9 -33 26
-95 49 -11 4 -26 6 -33 5 -8 -1 -20 3 -27 9 -8 7 -26 13 -41 15 -14 1 -30 8
-34 14 -5 9 -10 8 -20 -4 -10 -12 -16 -13 -26 -4 -8 6 -14 17 -14 24 0 8 -5
15 -12 17 -6 2 -8 10 -4 17 6 9 11 9 22 0 11 -9 14 -8 14 6 0 13 -8 16 -37 15
-58 -3 -63 -1 -63 17 0 15 2 14 15 -3 15 -19 15 -19 8 1 -9 28 -35 46 -49 34
-8 -6 -13 -3 -16 9 -4 12 -22 24 -52 33 -26 8 -45 18 -42 25 6 16 -36 62 -52
56 -7 -2 -19 1 -27 8 -8 6 -18 9 -24 6 -5 -4 -17 1 -25 10 -9 9 -23 13 -31 10
-8 -3 -17 -1 -20 4 -4 6 -16 10 -29 10 -27 0 -46 18 -46 42 0 17 -9 18 -112
13 -89 -3 -105 -2 -78 6 19 6 51 13 70 15 107 14 100 10 100 64 0 55 10 66 41
49 17 -9 20 -8 14 2 -6 9 -3 11 9 6 10 -4 24 -7 32 -7 10 0 6 -14 -16 -47
l-29 -48 149 -3 c89 -1 150 -6 150 -12 0 -6 -5 -10 -11 -10 -16 0 10 -29 45
-51 27 -16 30 -16 59 1 17 11 35 16 41 12 6 -3 0 -9 -14 -13 -21 -6 -20 -7 10
-7 19 1 49 -2 66 -5 24 -5 33 -3 38 9 3 8 14 14 23 12 11 -2 18 3 18 12 0 8
-6 14 -13 12 -6 -1 -12 2 -12 8 0 6 -33 10 -77 11 -64 0 -73 2 -53 11 14 5 62
12 108 15 l82 6 0 38 c0 21 4 49 9 62 13 33 3 67 -19 67 -10 0 -22 -9 -25 -20
-3 -11 -13 -20 -21 -20 -8 0 -14 -4 -14 -10 0 -5 -11 -10 -25 -10 -17 0 -28
-7 -34 -22 -8 -21 -10 -21 -16 -5 -6 15 -10 15 -23 5 -12 -10 -14 -10 -8 0 4
7 1 12 -8 12 -18 0 -18 2 -11 22 4 9 16 13 33 10 18 -2 37 4 52 16 29 23 25
31 -24 42 l-35 8 -58 -87 c-52 -76 -93 -113 -93 -82 0 13 338 523 353 533 12
7 37 -1 37 -12z m936 5 c6 -2 32 -68 57 -148 l47 -144 -44 -108 c-24 -59 -45
-104 -48 -99 -3 5 -20 56 -37 114 -18 58 -37 116 -43 130 -18 43 -86 259 -82
263 4 4 134 -3 150 -8z m-2217 -70 c-1 -51 2 -80 11 -88 10 -9 14 -9 18 3 10
29 98 109 127 115 17 3 38 11 48 16 9 5 38 12 63 16 l46 6 -23 -36 c-24 -38
-51 -53 -69 -42 -6 4 -8 10 -5 15 7 12 -53 -9 -83 -28 l-22 -14 45 -40 44 -39
-36 -55 c-32 -48 -39 -53 -49 -40 -6 9 -16 16 -23 16 -6 0 -2 -9 10 -21 11
-11 18 -23 16 -26 -3 -2 -15 5 -26 16 -12 12 -26 21 -33 21 -6 0 -4 6 6 13 18
13 18 15 -4 35 -12 11 -28 18 -36 15 -8 -3 -14 1 -14 11 0 18 -36 40 -55 32
-9 -3 -12 0 -8 10 3 7 0 14 -6 14 -14 0 -14 -26 4 -245 7 -99 12 -181 9 -184
-12 -12 -18 27 -35 231 -22 273 -23 288 -6 288 9 0 12 -11 9 -35 -2 -19 0 -35
4 -35 5 0 10 14 11 32 4 56 23 98 44 98 19 0 20 -6 18 -75z m531 68 c0 -3 -77
-132 -172 -285 l-171 -278 -73 0 -73 0 44 75 c25 41 43 80 41 87 -1 7 -1 9 2
5 2 -4 10 0 17 9 8 12 10 23 3 34 -14 23 59 142 83 135 12 -4 22 1 30 17 8 15
8 23 1 26 -6 2 -4 18 6 45 17 41 17 41 22 14 l5 -28 27 42 c25 39 29 67 7 54
-5 -4 -9 -2 -9 2 0 14 23 40 40 46 22 8 170 8 170 0z m230 -6 c0 -2 -9 -12
-20 -22 -19 -18 -20 -17 -20 3 0 15 6 22 20 22 11 0 20 -2 20 -3z m133 -11
c-59 -19 -107 -51 -148 -99 l-35 -41 6 35 c13 70 82 119 164 118 l55 0 -42
-13z m704 0 c40 0 54 -3 57 -15 14 -46 136 -491 136 -496 0 -3 -33 -5 -74 -5
l-75 0 -15 53 c-8 28 -33 120 -56 202 -23 83 -46 158 -51 167 -5 9 -12 34 -15
55 -3 21 -8 42 -11 46 -2 4 8 4 24 0 15 -4 52 -8 80 -7z m103 -11 c0 -8 16
-74 36 -147 30 -109 41 -138 66 -160 16 -16 27 -32 24 -37 -8 -12 12 -18 58
-17 37 1 67 26 32 26 -9 0 -16 4 -16 10 0 10 27 3 48 -13 18 -14 25 -2 12 22
-10 19 -8 21 20 21 17 0 29 -4 25 -9 -3 -6 -6 -47 -6 -93 -1 -90 -11 -117 -36
-93 -19 20 -39 20 -23 0 11 -13 10 -14 -4 -9 -9 3 -16 15 -16 25 0 10 -6 19
-12 20 -31 2 -49 8 -64 23 -13 14 -34 22 -34 14 0 -2 9 -32 20 -68 11 -36 20
-66 20 -67 0 -6 -126 -3 -162 3 -21 4 -38 11 -38 17 0 6 30 7 85 3 80 -7 85
-6 85 13 0 10 -31 132 -70 270 -73 263 -76 276 -60 266 6 -3 10 -12 10 -20z
m-1589 8 c-8 -3 -27 -21 -44 -39 -35 -40 -46 -43 -39 -9 2 14 8 22 13 19 5 -3
9 0 9 5 0 6 -6 11 -12 11 -9 0 -8 4 2 10 8 5 31 9 50 9 19 0 29 -3 21 -6z
m2509 -11 c4 -4 1 -101 -6 -217 -7 -115 -13 -234 -13 -262 l-1 -53 -67 0 c-95
0 -98 3 -89 92 4 40 7 84 7 97 -1 14 5 28 11 33 9 5 10 11 3 16 -12 8 -13 27
-3 37 4 4 4 13 2 20 -3 7 -1 23 5 34 8 14 8 22 0 27 -8 5 -9 29 -5 78 4 39 7
82 6 95 0 24 1 24 72 17 40 -4 75 -10 78 -14z m-1151 -56 c1 -19 1 -19 -13 -1
-7 10 -11 28 -8 39 5 19 6 20 13 0 4 -10 8 -28 8 -38z m1215 5 c3 -21 1 -74
-4 -117 -6 -44 -13 -117 -15 -164 -6 -103 -16 -204 -21 -209 -15 -16 -16 40
-5 266 7 142 15 261 18 265 9 16 20 -2 27 -41z m151 29 c46 -1 47 -4 31 -211
-9 -107 -18 -222 -22 -256 l-6 -63 -48 0 c-26 0 -62 3 -80 6 -29 6 -31 9 -26
37 4 17 10 33 15 37 11 7 20 130 9 130 -12 0 -10 58 2 65 6 3 11 -2 12 -12 2
-30 15 127 17 206 l1 74 38 -7 c20 -3 46 -6 57 -6z m-2965 -7 c0 -5 9 -120 20
-258 11 -137 20 -253 20 -257 0 -3 -31 -8 -69 -10 l-69 -3 -6 35 c-3 19 -10
123 -16 230 -6 107 -15 209 -20 227 -8 30 -7 32 23 36 59 7 117 7 117 0z m780
3 c0 -9 -40 -13 -46 -5 -3 5 6 9 20 9 14 0 26 -2 26 -4z m2286 -23 c-4 -9 -16
-127 -26 -261 -11 -135 -22 -247 -25 -250 -16 -16 -16 28 -1 225 21 286 24
303 43 303 10 0 13 -6 9 -17z m-855 -62 c13 -39 19 -76 15 -87 -6 -16 -9 -16
-16 -4 -6 8 -10 11 -10 5 0 -5 -4 -4 -9 4 -9 14 -15 151 -6 151 2 0 14 -31 26
-69z m-2481 32 c26 -24 33 -39 42 -100 6 -40 8 -78 5 -86 -3 -7 -32 -27 -65
-45 l-60 -32 -5 33 c-3 17 -9 68 -12 112 -4 44 -14 90 -21 103 -20 31 -10 42
41 42 35 0 52 -6 75 -27z m3652 -1 l57 -4 11 -51 c5 -29 26 -137 45 -242 19
-104 37 -200 40 -212 5 -22 4 -23 -57 -17 -35 4 -70 10 -78 14 -13 7 -27 73
-105 499 -6 30 -4 33 12 25 10 -4 44 -10 75 -12z m-3928 -39 c3 -27 15 -140
26 -252 12 -112 23 -208 25 -211 6 -10 -46 -20 -99 -20 l-42 0 -23 233 c-13
127 -25 244 -28 259 -5 26 -4 27 48 31 30 2 61 4 71 5 12 2 18 -9 22 -45z m46
28 c0 -10 7 -83 15 -162 10 -96 12 -146 5 -153 -7 -7 -10 -4 -10 10 0 10 -7
80 -15 154 -18 162 -18 170 -5 170 6 0 10 -9 10 -19z m4031 -257 c27 -148 53
-280 56 -293 6 -23 5 -23 -58 -17 -107 11 -139 17 -139 27 0 8 28 7 131 -6 24
-3 39 0 42 8 2 7 -17 129 -44 272 -27 143 -49 266 -49 274 0 47 17 -27 61
-265z m-2730 249 c12 -16 12 -17 -1 -7 -8 6 -22 14 -30 17 -13 5 -12 6 1 6 9
1 23 -7 30 -16z m1759 -42 c0 -20 -6 -30 -20 -34 -23 -6 -25 2 -8 38 15 33 28
32 28 -4z m-2735 -102 l7 -77 -80 -42 c-96 -50 -96 -50 -100 -28 -2 13 18 28
78 58 l81 41 -6 67 c-4 37 -9 76 -11 87 -4 15 -1 14 10 -5 7 -14 17 -59 21
-101z m295 59 c0 -17 -3 -18 -15 -8 -8 7 -15 19 -15 26 0 8 6 11 15 8 8 -4 15
-15 15 -26z m2417 -55 c9 -7 13 -37 12 -85 -1 -79 -15 -206 -18 -173 -5 41
-10 57 -25 81 -24 36 -38 29 -63 -27 -17 -38 -20 -56 -13 -70 6 -10 16 -18 23
-16 7 1 11 -3 10 -10 -3 -12 23 -31 42 -31 19 -1 16 -20 -5 -27 -18 -6 -19 -9
-8 -23 11 -13 10 -15 -9 -10 -13 4 -25 2 -28 -3 -5 -6 -45 4 -64 18 -2 1 6 10
17 20 19 16 20 20 7 37 -8 11 -15 15 -15 8 0 -6 -7 -9 -15 -6 -8 4 -15 11 -15
16 0 12 95 250 116 290 15 29 29 32 51 11z m-347 -32 c-7 -14 -7 -21 -1 -21 6
0 7 -8 4 -17 -6 -17 -6 -17 11 0 10 10 25 16 33 13 8 -3 18 -6 23 -6 6 0 40
-82 40 -97 0 -6 -40 7 -74 23 -24 11 -26 11 -17 0 8 -10 9 -16 1 -21 -17 -11
-11 -22 14 -27 14 -3 30 0 36 6 8 8 9 6 5 -6 -4 -11 -2 -18 4 -18 6 0 11 4 11
10 0 5 7 7 15 4 8 -4 15 -10 15 -15 0 -4 -7 -6 -15 -3 -9 4 -15 0 -15 -10 0
-9 8 -16 20 -16 10 0 24 -10 31 -21 7 -13 7 -19 1 -15 -6 4 -15 -2 -21 -11 -9
-16 -12 -16 -21 -3 -13 19 -13 33 0 25 6 -3 10 -2 10 4 0 14 -22 19 -46 10
-11 -4 -26 -4 -32 0 -33 20 -63 194 -39 231 15 26 22 8 7 -19z m-134 18 c45
-12 60 -29 24 -29 -11 0 -20 4 -20 9 0 4 -8 8 -17 8 -55 0 -68 3 -53 13 19 12
13 12 66 -1z m-1207 -66 c-1 -33 -2 -35 -8 -13 -4 14 -6 31 -3 38 8 22 12 13
11 -25z m658 -45 c-3 -8 -6 -5 -6 6 -1 11 2 17 5 13 3 -3 4 -12 1 -19z m133 7
c14 -8 23 -15 20 -15 -53 -9 -92 -10 -108 -1 -16 9 -22 8 -25 -4 -4 -11 -5
-11 -3 2 2 30 75 41 116 18z m-248 -47 c-8 -8 -9 -4 -5 13 4 13 8 18 11 10 2
-7 -1 -18 -6 -23z m163 -7 c50 -14 75 -30 58 -38 -7 -2 -13 -13 -13 -24 0 -22
-1 -22 -33 -10 -14 6 -28 19 -32 30 -3 12 -11 21 -16 21 -6 0 -7 -6 -4 -12 4
-7 -1 -4 -9 6 -20 24 -22 64 -3 48 6 -5 30 -15 52 -21z m-903 -60 c-4 -38 -5
-39 -44 -39 l-40 -1 38 38 c22 21 41 39 44 40 3 0 4 -16 2 -38z m-1108 -55 c4
-50 3 -67 -5 -59 -6 6 -13 42 -16 80 -4 45 -2 65 5 58 5 -5 12 -41 16 -79z
m1761 63 c9 -26 3 -31 -29 -27 -25 3 -26 4 -11 26 20 28 32 28 40 1z m885 -35
c0 -2 -7 -4 -15 -4 -10 0 -15 10 -15 33 l0 32 15 -29 c8 -15 15 -30 15 -32z
m-695 26 c18 -20 17 -20 -26 -19 -36 0 -40 2 -21 9 12 5 22 14 22 20 0 14 4
13 25 -10z m1632 -27 c-3 -10 -5 -2 -5 17 0 19 2 27 5 18 2 -10 2 -26 0 -35z
m-871 -47 c26 -19 18 -23 -38 -18 -33 3 -48 9 -48 18 0 19 60 19 86 0z m858
-2 c9 -22 8 -23 -13 -17 -12 3 -17 11 -14 19 7 19 19 18 27 -2z m-764 -4 c0
-5 -6 -10 -14 -10 -8 0 -18 5 -21 10 -3 6 3 10 14 10 12 0 21 -4 21 -10z
m-1976 -15 c-4 -11 -21 -15 -59 -15 -28 0 -80 -3 -115 -7 -51 -5 -62 -4 -58 8
5 14 69 23 185 27 43 2 51 -1 47 -13z m2444 -6 c113 -8 190 -17 200 -25 14
-11 8 -12 -38 -10 -30 2 -78 7 -106 11 l-51 7 -6 -31 c-8 -36 -28 -40 -64 -11
-14 11 -38 20 -53 20 -15 0 -33 7 -40 15 -7 9 -29 15 -52 15 -24 0 -37 4 -33
10 8 12 -5 13 -25 1 -16 -11 -33 -4 -25 9 3 5 29 8 58 6 29 -2 134 -10 235
-17z m-2718 -8 c0 -16 -11 -18 -107 -26 -81 -6 -93 -5 -93 8 0 12 14 17 58 20
119 7 142 7 142 -2z m1595 -1 c4 -6 -1 -7 -10 -3 -10 3 -21 0 -26 -8 -7 -11
-9 -11 -9 4 0 18 34 24 45 7z m1495 -31 c12 -7 11 -8 -5 -9 -49 0 -124 14
-119 22 7 11 100 1 124 -13z m-660 -4 c0 -12 -19 -12 -23 0 -4 9 -1 12 9 8 7
-3 14 -7 14 -8z m-2970 -15 c0 -4 -24 -11 -52 -14 -152 -19 -148 -18 -148 -3
0 11 21 17 93 24 94 9 107 8 107 -7z m3058 -7 c-10 -2 -26 -2 -35 0 -10 3 -2
5 17 5 19 0 27 -2 18 -5z m-133 -13 c-3 -6 4 -10 17 -10 13 0 30 -5 38 -10 11
-7 -1 -10 -41 -10 -41 0 -56 4 -56 14 0 8 6 12 13 9 6 -2 15 0 19 6 3 6 8 11
11 11 3 0 2 -4 -1 -10z m173 -16 c6 -1 42 -2 78 -2 56 -2 65 -4 62 -19 -3 -14
-12 -17 -48 -15 -97 5 -120 12 -120 35 0 12 4 18 8 12 4 -5 13 -10 20 -11z
m47 -74 c18 -19 17 -20 -6 -19 -13 0 -18 3 -11 6 10 4 10 8 1 19 -18 22 -4 17
16 -6z m-131 -9 c4 -5 -3 -7 -14 -4 -23 6 -26 13 -6 13 8 0 17 -4 20 -9z
m-130 -117 c9 -24 7 -27 -9 -10 -17 17 -19 26 -6 26 5 0 12 -7 15 -16z m71
-13 c-6 -5 -25 10 -25 20 0 5 6 4 14 -3 8 -7 12 -15 11 -17z m-18 -37 c-9 -9
-28 6 -21 18 4 6 10 6 17 -1 6 -6 8 -13 4 -17z m-1722 -4 c-3 -5 -12 -10 -18
-10 -7 0 -6 4 3 10 19 12 23 12 15 0z m1745 -220 c0 -5 8 -6 17 -3 12 5 11 1
-5 -15 -12 -12 -30 -21 -39 -21 -16 1 -16 2 -2 6 11 3 15 11 12 24 -3 10 0 19
6 19 6 0 11 -4 11 -10z m-155 -60 c-3 -4 2 -10 10 -14 20 -7 19 -22 -1 -30
-18 -7 -47 11 -39 24 3 5 -3 10 -12 13 -15 3 -14 6 7 14 26 11 44 8 35 -7z
m-135 -24 c0 -3 -4 -8 -10 -11 -5 -3 -10 -1 -10 4 0 6 5 11 10 11 6 0 10 -2
10 -4z m-363 -61 c0 -8 -7 -15 -15 -15 -12 0 -12 3 -2 15 7 8 13 15 15 15 1 0
2 -7 2 -15z"/>
<path d="M2838 3663 c7 -3 16 -2 19 1 4 3 -2 6 -13 5 -11 0 -14 -3 -6 -6z"/>
<path d="M2365 3600 c3 -5 11 -10 16 -10 6 0 7 5 4 10 -3 6 -11 10 -16 10 -6
0 -7 -4 -4 -10z"/>
<path d="M1960 3580 c0 -5 7 -10 15 -10 8 0 15 5 15 10 0 6 -7 10 -15 10 -8 0
-15 -4 -15 -10z"/>
<path d="M3100 3580 c0 -5 -7 -10 -15 -10 -21 0 -19 -20 3 -22 32 -2 37 -4 50
-11 9 -6 11 -2 8 15 -3 13 -5 26 -5 31 -1 11 -41 8 -41 -3z"/>
<path d="M1745 3560 c-8 -13 15 -13 35 0 12 8 11 10 -7 10 -12 0 -25 -4 -28
-10z"/>
<path d="M1797 3543 c-6 -34 -7 -34 20 -27 13 4 20 11 16 20 -3 8 1 14 10 14
8 0 17 -6 20 -12 2 -7 8 -10 12 -5 13 11 -6 26 -41 33 -28 5 -32 3 -37 -23z"/>
<path d="M2300 3543 c0 -13 4 -23 9 -23 10 0 19 -40 13 -59 -2 -7 -15 -16 -29
-22 -13 -5 -21 -14 -18 -19 4 -7 11 -8 18 -1 7 5 30 12 51 16 38 8 39 7 34
-18 -6 -29 6 -37 53 -37 18 0 28 4 24 10 -3 6 -1 10 5 10 6 0 -2 11 -19 25
-21 18 -31 36 -33 63 l-4 37 -12 -29 c-9 -21 -16 -26 -24 -18 -6 6 -17 8 -25
5 -12 -5 -14 -1 -9 14 4 13 -1 29 -13 44 l-20 24 -1 -22z"/>
<path d="M2070 3530 c0 -5 7 -10 15 -10 8 0 15 5 15 10 0 6 -7 10 -15 10 -8 0
-15 -4 -15 -10z"/>
<path d="M2120 3490 c0 -5 5 -10 11 -10 5 0 7 5 4 10 -3 6 -8 10 -11 10 -2 0
-4 -4 -4 -10z"/>
<path d="M1750 3429 c-12 -9 -12 -10 4 -5 16 6 17 4 6 -9 -16 -19 -10 -19 26
0 16 8 24 15 17 15 -6 0 -17 2 -25 5 -7 3 -20 0 -28 -6z"/>
<path d="M1870 3410 c-13 -9 -13 -11 0 -20 18 -12 21 -12 39 -1 15 10 7 31
-12 31 -7 0 -19 -5 -27 -10z"/>
<path d="M2700 3350 c-8 -15 -8 -20 3 -20 14 0 37 19 37 32 0 16 -30 7 -40
-12z"/>
<path d="M2565 3350 c-3 -5 -1 -10 4 -10 6 0 11 5 11 10 0 6 -2 10 -4 10 -3 0
-8 -4 -11 -10z"/>
<path d="M2623 3325 c4 -30 22 -45 55 -45 43 0 16 49 -36 65 -20 6 -23 4 -19
-20z"/>
<path d="M3060 3330 c-13 -18 -26 -20 -47 -7 -23 14 -34 -3 -18 -26 8 -12 15
-29 15 -39 0 -27 19 -21 32 10 9 21 12 23 15 10 5 -21 46 -23 124 -7 l52 11
-32 14 c-29 12 -31 16 -21 36 l11 23 -20 -22 c-20 -24 -37 -28 -66 -17 -12 5
-13 9 -5 14 8 5 5 9 -8 12 -12 3 -24 -2 -32 -12z"/>
<path d="M3206 3325 c-3 -8 -1 -15 4 -15 13 0 22 18 11 24 -5 3 -11 -1 -15 -9z"/>
<path d="M1434 3281 c3 -5 15 -11 26 -14 17 -4 19 -3 9 9 -12 15 -44 20 -35 5z"/>
<path d="M2753 3268 c2 -7 11 -13 20 -12 79 4 82 4 67 14 -23 15 -93 13 -87
-2z"/>
<path d="M1490 3250 c0 -6 7 -10 15 -10 8 0 15 2 15 4 0 2 -7 6 -15 10 -8 3
-15 1 -15 -4z"/>
<path d="M1600 3205 c0 -9 6 -12 15 -9 8 4 15 10 15 15 0 5 -7 9 -15 9 -8 0
-15 -7 -15 -15z"/>
<path d="M3110 3204 c0 -9 5 -14 12 -12 18 6 21 28 4 28 -9 0 -16 -7 -16 -16z"/>
<path d="M3355 3209 c-11 -17 0 -20 21 -4 17 13 17 14 2 15 -9 0 -20 -5 -23
-11z"/>
<path d="M1990 3200 c-11 -7 -3 -10 28 -10 23 0 42 3 42 8 0 11 -53 12 -70 2z"/>
<path d="M1328 3173 c7 -3 16 -2 19 1 4 3 -2 6 -13 5 -11 0 -14 -3 -6 -6z"/>
<path d="M1668 3139 c-17 -18 -17 -19 3 -19 28 0 61 19 54 31 -10 15 -39 9
-57 -12z"/>
<path d="M2388 3153 c7 -3 16 -2 19 1 4 3 -2 6 -13 5 -11 0 -14 -3 -6 -6z"/>
<path d="M3308 3139 c-19 -10 -14 -39 7 -39 16 0 64 39 48 40 -6 0 -17 2 -25
5 -7 2 -21 0 -30 -6z"/>
<path d="M1280 3129 c0 -5 5 -7 10 -4 6 3 10 8 10 11 0 2 -4 4 -10 4 -5 0 -10
-5 -10 -11z"/>
<path d="M1473 3073 c9 -2 23 -2 30 0 6 3 -1 5 -18 5 -16 0 -22 -2 -12 -5z"/>
<path d="M3585 2940 c-8 -14 -7 -15 23 -25 20 -6 23 -4 20 11 -4 22 -33 31
-43 14z"/>
<path d="M3665 2930 c-4 -6 6 -10 22 -10 22 0 25 2 13 10 -19 12 -27 12 -35 0z"/>
<path d="M1820 2916 c0 -2 7 -7 16 -10 8 -3 12 -2 9 4 -6 10 -25 14 -25 6z"/>
<path d="M3480 2891 c0 -5 7 -12 16 -15 24 -9 28 -7 14 9 -14 17 -30 20 -30 6z"/>
<path d="M1810 2860 c0 -5 5 -10 10 -10 6 0 10 5 10 10 0 6 -4 10 -10 10 -5 0
-10 -4 -10 -10z"/>
<path d="M3044 2814 c3 -9 6 -20 6 -25 0 -14 39 -49 55 -49 10 0 5 13 -18 44
-32 45 -55 60 -43 30z"/>
<path d="M2190 2210 c0 -5 7 -10 15 -10 8 0 15 5 15 10 0 6 -7 10 -15 10 -8 0
-15 -4 -15 -10z"/>
<path d="M2458 2123 c7 -3 16 -2 19 1 4 3 -2 6 -13 5 -11 0 -14 -3 -6 -6z"/>
<path d="M2947 2106 c17 -13 27 -14 40 -7 14 8 15 10 3 11 -8 0 -26 3 -40 6
l-25 6 22 -16z"/>
<path d="M3086 2045 c4 -8 16 -15 27 -15 20 0 20 0 1 15 -25 19 -35 19 -28 0z"/>
<path d="M2872 1697 c2 -15 7 -28 13 -28 16 -1 16 16 0 36 -15 19 -15 19 -13
-8z"/>
<path d="M3507 2253 c-4 -3 -7 -11 -7 -17 0 -6 5 -5 12 2 6 6 9 14 7 17 -3 3
-9 2 -12 -2z"/>
</g>
</svg>
